<?xml version="1.0" standalone="no"?><!DOCTYPE svg PUBLIC "-//W3C//DTD SVG 1.1//EN" "http://www.w3.org/Graphics/SVG/1.1/DTD/svg11.dtd"><svg t="1557718522981" class="icon" style="" viewBox="0 0 1024 1024" version="1.1" xmlns="http://www.w3.org/2000/svg" p-id="23324" xmlns:xlink="http://www.w3.org/1999/xlink" width="200" height="200"><defs><style type="text/css"></style></defs><path d="M512 967.111111C260.636444 967.111111 56.888889 763.363556 56.888889 512S260.636444 56.888889 512 56.888889s455.111111 203.747556 455.111111 455.111111-203.747556 455.111111-455.111111 455.111111z m0-56.888889c219.932444 0 398.222222-178.289778 398.222222-398.222222S731.932444 113.777778 512 113.777778 113.777778 292.067556 113.777778 512s178.289778 398.222222 398.222222 398.222222z m0-142.222222c-22.129778 0-38.456889-9.358222-48.981333-28.046222-10.524444-18.716444-10.524444-37.404444 0-56.120889 10.524444-18.688 26.851556-28.558222 48.981333-29.610667 16.867556 1.052444 30.549333 6.741333 41.073778 17.152 10.524444 10.382222 15.815111 23.608889 15.815111 39.736889 0 16.099556-5.262222 29.610667-15.815111 40.533333-10.524444 10.894222-24.206222 16.355556-41.073778 16.355556z m43.576889-185.827556a42.666667 42.666667 0 0 1-85.333333 0c0 2.417778 0.056889 2.986667-0.426667-1.507555-3.185778-29.582222 0.910222-58.709333 19.655111-88.177778 12.060444-18.915556 29.240889-35.271111 51.569778-48.469333 22.584889-13.368889 35.356444-25.6 41.244444-36.209778a20.48 20.48 0 0 0 3.242667-11.946667c-0.739556-24.632889-18.488889-48.241778-71.281778-48.725333-48.184889-0.426667-68.380444 14.421333-74.609778 50.574222a42.666667 42.666667 0 1 1-84.081777-14.449778c13.681778-79.758222 71.509333-122.254222 159.488-121.457777 105.244444 0.967111 153.799111 65.621333 155.761777 131.498666 1.336889 44.003556-22.186667 86.243556-86.385777 124.188445-10.922667 6.456889-18.204444 13.425778-22.954667 20.849778-6.485333 10.154667-8.049778 20.679111-6.883556 32.512-0.113778-1.336889 0.995556 8.049778 0.995556 11.320888z" fill="#707070" p-id="23325"></path></svg>