<?xml version="1.0" standalone="no"?><!DOCTYPE svg PUBLIC "-//W3C//DTD SVG 1.1//EN" "http://www.w3.org/Graphics/SVG/1.1/DTD/svg11.dtd"><svg t="1557717362727" class="icon" style="" viewBox="0 0 1024 1024" version="1.1" xmlns="http://www.w3.org/2000/svg" p-id="22255" xmlns:xlink="http://www.w3.org/1999/xlink" width="200" height="200"><defs><style type="text/css"></style></defs><path d="M416 112a304 304 0 0 1 240.128 490.496l253.568 253.632a8 8 0 0 1 0 11.264l-42.24 42.304a8 8 0 0 1-11.328 0l-253.632-253.568A304 304 0 1 1 416 112zM254.784 577.216A226.24 226.24 0 0 0 416 643.968c60.928 0 118.208-23.68 161.216-66.752A226.24 226.24 0 0 0 644.032 416c0-60.928-23.68-118.208-66.816-161.216A226.24 226.24 0 0 0 416 188.032c-60.928 0-118.208 23.68-161.216 66.752A226.24 226.24 0 0 0 188.032 416c0 60.928 23.68 118.208 66.752 161.216z" fill="#707070" p-id="22256"></path></svg>