<?xml version="1.0" standalone="no"?><!DOCTYPE svg PUBLIC "-//W3C//DTD SVG 1.1//EN" "http://www.w3.org/Graphics/SVG/1.1/DTD/svg11.dtd"><svg t="1557049265564" class="icon" style="" viewBox="0 0 1025 1024" version="1.1" xmlns="http://www.w3.org/2000/svg" p-id="1721" xmlns:xlink="http://www.w3.org/1999/xlink" width="200.1953125" height="200"><defs><style type="text/css"></style></defs><path d="M512.7341075 33.9161675c-264.56680406 0-479.04191625 214.47511219-479.04191625 479.04191625s214.47511219 479.04191625 479.04191625 479.04191625 479.04191625-214.47511219 479.04191625-479.04191625-214.47511219-479.04191625-479.04191625-479.04191625zM271.04529781 282.8822975c33.66860062 0 60.96650438 24.39932625 60.96650438 54.47885531 0 30.10385438-27.29696812 54.47511187-60.96650438 54.47511188-33.652695 0-60.94966313-24.3712575-60.94966312-54.47511188 0-30.07952812 27.29696812-54.47885438 60.94966312-54.47885531z m50.93843531 327.42140719c-16.13959594 49.74457313-12.09206625 31.25748469-75.98802375 169.62107062l-92.62256718-57.54865219S256.57860594 628.7674025 277.86416 585.98484312c22.41953625-45.10198312-24.79041938-69.23746219-24.79041938-69.23746312l-70.94966343-43.99606969 38.2915425-58.90250812c53.61246281 39.59674406 57.52058344 42.93413156 93.60123469 78.98952094 27.95097281 27.93226031 24.457335 66.66635437 7.96687875 117.46538156z m503.12125782 64.48259812c-17.99588344 168.8061375-238.30744781 106.07971594-238.30744781 106.079715l12.00037406-48.27189375 50.94217781 10.93375781c94.43955844 5.96837531 85.15718531-76.19199094 85.15718625-76.19199093v-239.0063625c0.82990312-90.60254531-85.58476781-100.12350281-240.56324906-44.82223032l36.07223062 9.73615219c-3.12219281 10.63061344-14.86620469 27.22960313-29.78854781 45.30127313h207.39333844v41.82073312H591.29698156v52.27170656h116.2312875v41.82821907H591.29698156v87.67683375c17.34936375-5.76440906 33.62462531-13.6124625 47.77226813-24.01946157l-10.29940125-38.26721531 54.89801625-16.98166219 45.60909468 111.56530688-67.53274687 27.90793406-11.97979031-44.47885406c-30.10011187 23.09786719-92.8386975 56.39502281-202.35123563 53.4375-116.91897469 2.99775469-86.93488031-131.44928906-86.93488031-131.44928906l3.01366031-1.49700656h82.12013531c-0.51459563 17.23334625-7.64034469 45.45658687 2.10797157 60.77002312 8.00430375 12.5626875 28.48708875 14.73802406 41.65231968 15.40886906 1.488585 0.09636937 3.00243281 0.10759687 4.50318094 0.16747782V574.46725344h-119.21781375v-41.82821907h119.21781375V480.36732781H463.30484094c-26.80669875 28.36732781-51.31362281 51.79266469-51.31362281 51.79266469l-35.98053844-31.3575975c25.51740281-26.786115 51.11807625-69.22997719 66.86657906-97.58514188-12.81062906 5.21800125-25.99644469 10.79434875-39.57709594 16.71874969-13.39726781 16.74214031-28.61433375 34.01571844-45.74008219 50.98989563 0.69891469 1.00205813-58.73035219-33.16991062-58.73035218-33.16991063 61.44086812-52.27919156 95.91223781-164.30763469 95.91223781-164.30763469l85.42945406 23.883795s-7.07428875 16.52694656-21.71220094 41.89184157c342.24738-96.59431125 362.15194594 59.20939406 362.15194688 59.20939312s22.49812875 107.55426656 4.49382469 276.35292z" fill="#1890ff" p-id="1722"></path></svg>