<?xml version="1.0" standalone="no"?><!DOCTYPE svg PUBLIC "-//W3C//DTD SVG 1.1//EN" "http://www.w3.org/Graphics/SVG/1.1/DTD/svg11.dtd"><svg t="1557718987587" class="icon" style="" viewBox="0 0 1024 1024" version="1.1" xmlns="http://www.w3.org/2000/svg" p-id="25386" xmlns:xlink="http://www.w3.org/1999/xlink" width="200" height="200"><defs><style type="text/css"></style></defs><path d="M829.44 857.234H194.56l-4.389-26.331c-1.462-10.24-2.925-21.943-2.925-32.183V397.897c0-143.36 141.897-310.126 324.754-310.126s324.754 166.766 324.754 310.126v402.286c0 10.24-1.463 20.48-2.925 32.183l-4.389 24.868z m-580.754-59.977h526.628v-399.36c0-112.64-117.028-250.148-263.314-250.148S248.686 283.794 248.686 397.897v399.36z" fill="#707070" p-id="25387"></path><path d="M904.046 861.623H119.954c-8.777 0-14.628-5.852-14.628-14.629v-30.72c0-8.777 5.851-14.628 14.628-14.628h782.629c8.777 0 14.628 5.851 14.628 14.628v30.72c1.463 8.777-5.851 14.629-13.165 14.629z" fill="#707070" p-id="25388"></path><path d="M512 1024c-59.977 0-109.714-49.737-109.714-109.714V806.034h219.428v108.252C621.714 975.726 571.977 1024 512 1024z m-49.737-156.526v46.812c0 27.794 21.943 49.737 49.737 49.737s49.737-21.943 49.737-49.737v-46.812h-99.474zM481.28 0h59.977v131.657H481.28V0z" fill="#707070" p-id="25389"></path></svg>