<?xml version="1.0" standalone="no"?><!DOCTYPE svg PUBLIC "-//W3C//DTD SVG 1.1//EN" "http://www.w3.org/Graphics/SVG/1.1/DTD/svg11.dtd"><svg t="1557049320954" class="icon" style="" viewBox="0 0 1024 1024" version="1.1" xmlns="http://www.w3.org/2000/svg" p-id="2625" xmlns:xlink="http://www.w3.org/1999/xlink" width="200" height="200"><defs><style type="text/css"></style></defs><path d="M447.7 574.7c-6 4.3-7.8 12.5-4.1 18.9 3.7 5 10.7 6.1 15.8 2.4l0.1-0.1c0.4-0.1 0.7-0.4 0.8-0.8 6-4.2 8.2-12.1 5.3-18.9-3.9-5.3-11.3-6.5-16.7-2.7l-1.2 1.2z m-47.2 12.9c-17.3 2-30.6 16.1-31.8 33.5 1.3 14.9 14.4 26 29.3 24.7 1.4-0.1 2.8-0.3 4.1-0.7 17.5-1 31.7-14.4 33.8-31.8-1.3-16-15.2-27.9-31.2-26.6-1.4 0.1-2.9 0.3-4.3 0.7l0.1 0.2zM512 64.2C264.7 64.2 64.2 264.7 64.2 512S264.7 959.8 512 959.8 959.8 759.3 959.8 512 759.3 64.2 512 64.2z m201.5 552.5c-40.3 86.3-174.6 128.4-274 120.8-94.4-7.4-215.8-38.7-228.4-153-0.1-43.5 15.4-85.6 43.6-118.7 40.1-55.9 94-100.5 156.3-129.5 83.9-28.5 93.6 19.9 93.6 48.4-4.1 24.4-12.6 38.7 18.7 28.8 0 0 83-38.7 116.8-4.3 15.6 18.4 17.4 44.8 4.5 65.1 0 0-11.4 12.9 12.2 17.1 45.1 7.6 75.4 50.2 67.9 95.3-1.7 10.7-5.5 20.9-11.2 30z m-81.4-238.4c-9 0-16.2-7.4-16.2-16.4 0-8.9 7.3-16.1 16.2-16.2 39.2-10.2 79.2 13.3 89.4 52.5 3.2 12.4 3.2 25.4-0.2 37.8v1.8c-1.4 7.7-8 13.4-15.9 13.4-9 0.2-16.5-6.9-16.7-15.9V434.7c8.8-22.4-2.2-47.7-24.5-56.5-10.3-4.1-21.8-4-32 0l-0.1 0.1z m171.4 77.6c0.7 12.7-9 23.7-21.8 24.4h-1c-13 0-23.6-3.6-23.6-16.6 0.1-7.8 1.6-15.5 4.5-22.8 7.6-26.1 5-54.2-7.3-78.5-25-40-70.3-62.4-117.2-58-6.9 2.4-14 4.1-21.2 5-13.1-0.1-23.6-10.7-23.6-23.8 0-10.7 6.9-20.1 17.1-23.2 0.1-0.4 0.4-0.8 0.8-1 0.5-0.8 1.2-1.5 2-2.1 26.6-6.9 54.4-8 81.4-3.2 81.9 18.3 133.5 99.6 115.2 181.5-1.4 6.3-3.2 12.4-5.3 18.3z m-356.6 15.3c-98.5 4.5-178.3 57.4-178.3 123.2s79.8 115.2 178.3 110.9c98.5-4.3 178.7-66.5 178.7-132.3s-80.2-106.1-178.7-101.8zM514 636.9c-36.1 44.2-99 55.5-148.2 26.6-16.3-8.8-26.4-25.9-26.5-44.4-6.3-51.1 29.9-97.6 81-103.9 2.3-0.3 4.6-0.5 6.9-0.6 43-10.9 86.7 15 97.7 58 5.7 22 1.7 45.3-10.9 64.3z" fill="#bfbfbf" p-id="2626"></path></svg>